<svg width="168" height="24" viewBox="0 0 168 24" fill="none" xmlns="http://www.w3.org/2000/svg">
<g clip-path="url(#clip0)">
<path d="M30.6809 23.0771V5.96505H33.6546L40.9064 17.5311L41.3594 18.6572L41.263 17.4337V5.96082H44.2115V23.0728H41.3343L33.986 11.3628L33.512 10.2367L33.6295 11.4348V23.0728H30.6809V23.0771Z" fill="#19194A"/>
<path d="M51.0817 23.437C48.1079 23.437 46.6106 21.9976 46.6106 19.7411C46.6106 18.2043 47.2775 17.0528 48.3931 16.3585C48.7748 16.096 49.1775 15.9012 49.5591 15.7827C50.3686 15.4948 51.3878 15.3043 53.1033 15.0376C55.5527 14.7243 56.5258 14.3899 56.5258 13.2595C56.5258 12.108 55.7876 11.3883 53.6485 11.3883C51.3878 11.3883 50.3686 12.3705 50.2722 14.1485H47.0636C47.2775 11.003 49.5591 8.94128 53.4849 8.94128C54.9823 8.94128 56.1231 9.13179 57.0291 9.54245C58.8116 10.3087 59.5246 11.7735 59.5246 13.7675V23.0813H57.0039L56.6726 20.3211C55.7456 22.1161 53.9128 23.437 51.0817 23.437ZM54.4832 20.3888C55.8127 19.5506 56.5509 18.1577 56.5509 16.8369V16.0917C55.9805 16.4982 55.0284 16.7861 53.7911 16.9808C52.126 17.2433 51.4633 17.438 50.8174 17.8444C50.2722 18.2043 50.0079 18.6827 50.0079 19.2838C50.0079 20.4354 50.7209 21.0111 52.147 21.0111C53.0571 21.0111 53.8163 20.7952 54.4832 20.3888Z" fill="#19194A"/>
<path d="M62.4019 23.0771V9.27573H65.04L65.3252 12.036C66.0634 10.1394 67.6069 8.94128 69.9641 8.94128C73.2691 8.94128 75.0265 11.1512 75.0265 14.5804V23.0771H71.8892V15.3466C71.8892 13.0902 71.1762 11.6762 68.9407 11.6762C66.6087 11.6762 65.5391 13.3103 65.5391 15.8758V23.0771H62.4019Z" fill="#19194A"/>
<path d="M77.3125 16.4516V16.0917C77.3125 14.555 77.6229 13.2341 78.2143 12.1799C79.4012 10.0674 81.5193 8.94128 84.2078 8.94128C85.5877 8.94128 86.7537 9.20376 87.7729 9.77953C89.8658 10.9057 91.1031 13.0436 91.1031 16.0917V16.4516C91.1031 17.963 90.8179 19.2119 90.2475 20.2449C89.0605 22.332 86.9886 23.437 84.2078 23.437C79.7829 23.437 77.3125 20.9646 77.3125 16.4516ZM87.9407 16.405V16.0917C87.9407 13.2595 86.4895 11.6296 84.233 11.6296C81.9975 11.6296 80.5001 13.1664 80.5001 16.0917V16.405C80.5001 19.1399 81.88 20.6767 84.2078 20.6767C86.5608 20.6767 87.9407 19.1399 87.9407 16.405Z" fill="#19194A"/>
<path d="M103.87 21.2524C103.015 22.5733 101.589 23.4369 99.4243 23.4369C95.2888 23.4369 93.0281 20.9645 93.0281 15.4694V13.8141C93.0281 8.34008 95.834 5.65601 100.448 5.65601C104.68 5.65601 107.058 7.93789 107.247 11.8963H103.988C103.962 11.2485 103.82 10.7193 103.56 10.169C103.086 9.13599 102.155 8.46708 100.397 8.46708C97.5201 8.46708 96.2115 10.2452 96.2115 13.9411V15.3551C96.1863 19.051 97.4949 20.6089 100.301 20.6089C101.207 20.6089 101.895 20.4396 102.44 20.0797C103.535 19.3854 104.009 18.1365 104.034 16.8156H99.8982V14.0977H107.318V23.0728H104.965L104.726 19.0171C104.562 19.813 104.273 20.5793 103.87 21.2524Z" fill="#19194A"/>
<path d="M109.746 5.69836C109.746 4.16158 110.434 3.63239 111.814 3.63239C113.194 3.63239 113.882 4.16158 113.882 5.69836C113.882 7.18433 113.215 7.7855 111.814 7.7855C110.317 7.7855 109.746 7.28171 109.746 5.69836ZM110.195 9.27571H113.358V23.0771H110.195V9.27571Z" fill="#19194A"/>
<path d="M120.039 23.437C117.065 23.437 115.568 21.9976 115.568 19.7411C115.568 18.2043 116.235 17.0528 117.35 16.3585C117.732 16.096 118.135 15.9012 118.516 15.7827C119.326 15.4948 120.345 15.3043 122.061 15.0376C124.51 14.7243 125.483 14.3899 125.483 13.2595C125.483 12.108 124.745 11.3883 122.606 11.3883C120.345 11.3883 119.326 12.3705 119.229 14.1485H116.021C116.235 11.003 118.516 8.94128 122.442 8.94128C123.94 8.94128 125.08 9.13179 125.986 9.54245C127.769 10.3087 128.482 11.7735 128.482 13.7675V23.0813H125.961L125.63 20.3211C124.699 22.1161 122.87 23.437 120.039 23.437ZM123.44 20.3888C124.774 19.5506 125.508 18.1577 125.508 16.8369V16.0917C124.938 16.4982 123.986 16.7861 122.748 16.9808C121.083 17.2433 120.421 17.438 119.779 17.8444C119.234 18.2043 118.969 18.6827 118.969 19.2838C118.969 20.4354 119.682 21.0111 121.108 21.0111C122.014 21.0111 122.774 20.7952 123.44 20.3888Z" fill="#19194A"/>
<path d="M131.359 23.0771V9.27573H133.998L134.283 12.036C135.021 10.1394 136.564 8.94128 138.917 8.94128C142.222 8.94128 143.98 11.1512 143.98 14.5804V23.0771H140.843V15.3466C140.843 13.0902 140.13 11.6762 137.894 11.6762C135.566 11.6762 134.492 13.3103 134.492 15.8758V23.0771H131.359Z" fill="#19194A"/>
<path d="M152.544 23.0771C151.261 23.0771 150.263 22.8866 149.596 22.5733C148.216 21.879 147.788 20.3634 147.788 17.5566V12.0572H145.125V9.39427H146.337C146.79 9.39427 147.096 9.34771 147.314 9.25033C147.767 9.03442 147.91 8.50523 147.981 7.3791C148.006 6.77794 148.027 5.9651 148.027 5.55444H150.69V9.27573H154.306V12.0614H150.69V17.0274C150.69 17.9376 150.762 18.6107 150.879 19.0679C151.093 19.9782 151.806 20.1475 153.329 20.1475H154.302V23.0771H152.544Z" fill="#19194A"/>
<path d="M155.401 18.5133H158.777C159.062 20.1475 160.178 20.7952 162.128 20.7952C164.125 20.7952 164.909 20.1221 164.909 19.0171C164.909 18.6107 164.741 18.272 164.385 18.0561C163.697 17.6497 162.506 17.4803 161.197 17.2898C159.96 17.0993 158.701 16.8834 157.678 16.3288C156.655 15.7742 156.013 14.8428 156.013 13.306C156.013 10.7617 157.892 8.93701 161.65 8.93701C165.572 8.93701 167.354 10.6389 167.736 13.3992H164.548C164.334 12.0571 163.433 11.456 161.625 11.456C159.675 11.456 159.079 12.1503 159.079 13.1113C159.079 13.5177 159.247 13.8564 159.603 14.0723C160.291 14.4787 161.507 14.6481 162.812 14.8386C164.049 15.0291 165.307 15.245 166.331 15.7996C167.354 16.35 167.996 17.2856 167.996 18.8224C167.996 21.4853 166.092 23.4285 162.053 23.4285C157.85 23.4369 155.803 21.7308 155.401 18.5133Z" fill="#19194A"/>
<path d="M4.70593 0V6.97266H15.3425C15.2796 10.368 14.0591 13.5728 11.2489 15.3636C9.84386 16.2907 8.0697 16.7225 5.7461 16.7225C3.44347 16.7225 1.53089 16.3119 0 15.444V23.7418C1.09889 23.9111 2.2565 24 3.48541 24C9.04696 24 12.7169 21.7774 14.9147 18.3863C15.9549 16.659 16.6889 14.6862 17.1167 12.6498L17.729 23.0771H23.7813V0H4.70593Z" fill="#19194A"/>
</g>
<defs>
<clipPath id="clip0">
<rect width="168" height="24" fill="white"/>
</clipPath>
</defs>
</svg>
