<svg width="24" height="24" viewBox="0 0 24 24" fill="none" xmlns="http://www.w3.org/2000/svg">
<path d="M4.4362 15.9967L3.76495 19.353C3.71545 19.599 3.7927 19.8532 3.9697 20.0302C4.11145 20.172 4.3027 20.25 4.49995 20.25C4.5487 20.25 4.5982 20.2455 4.64695 20.235L8.0032 19.5637L4.4362 15.9967Z" fill="#19194A"/>
<path d="M13.1895 6.75L11.25 8.6895L5.25 14.6895L9.3105 18.75L17.25 10.8105L13.1895 6.75Z" fill="#19194A"/>
<path d="M20.0302 6.96969L17.0303 3.96969C16.737 3.67644 16.263 3.67644 15.9697 3.96969L14.25 5.68944L18.3105 9.74994L20.0302 8.03019C20.3235 7.73694 20.3235 7.26294 20.0302 6.96969Z" fill="#19194A"/>
</svg>
