<svg width="124" height="124" viewBox="0 0 124 124" fill="none" xmlns="http://www.w3.org/2000/svg">
<path d="M62 106.562C86.6112 106.562 106.562 86.6112 106.562 62C106.562 37.3888 86.6112 17.4375 62 17.4375C37.3888 17.4375 17.4375 37.3888 17.4375 62C17.4375 86.6112 37.3888 106.562 62 106.562Z" fill="#EFEFEF"/>
<path fill-rule="evenodd" clip-rule="evenodd" d="M62 46.5C55.5913 46.5 50.375 51.7146 50.375 58.125C50.375 64.5354 55.5913 69.75 62 69.75C68.4087 69.75 73.625 64.5354 73.625 58.125C73.625 51.7146 68.4087 46.5 62 46.5Z" fill="#19194A"/>
<path fill-rule="evenodd" clip-rule="evenodd" d="M69.7486 73.625H54.2514C47.8301 73.625 42.625 78.8137 42.625 85.2564V102.14C48.4836 104.973 55.056 106.562 62 106.562C68.944 106.562 75.5164 104.973 81.375 102.14V85.2564C81.375 78.8325 76.1893 73.625 69.7486 73.625Z" fill="#19194A"/>
</svg>
